<svg xmlns="http://www.w3.org/2000/svg" viewBox="0 0 509.9 565.77"><title>Asset 1</title><g id="Layer_2" data-name="Layer 2"><g id="Layer_1-2" data-name="Layer 1"><path d="M84.66,478.7s49.87-28.88,70.21-34.79c0,0,44.63-13.78,100.41,13.79l150.94-86V256.88L53.16,459.66S21,453.76,0,405.85V159.76s4.59-26.91,29.53-40.69L227.72,5.54s23-12.47,58.4,0L425.25,86.92s-42.66,25.59-62.35,31.5c0,0-30.84,13.12-88.59-2.63L252,107.92,103.69,194.54V311.35L456.75,106.6S502,127,506.62,153.85L509.9,394.7s-1.31,32.81-29.53,52.5L274.31,564s-20.34,5.9-49.87-3.94Z"/></g></g></svg>